<?xml version="1.0" standalone="no"?>
<!DOCTYPE svg PUBLIC "-//W3C//DTD SVG 20010904//EN"
 "http://www.w3.org/TR/2001/REC-SVG-20010904/DTD/svg10.dtd">
<svg version="1.0" xmlns="http://www.w3.org/2000/svg"
 width="374.000000pt" height="335.000000pt" viewBox="0 0 374.000000 335.000000"
 preserveAspectRatio="xMidYMid meet">

<g transform="translate(0.000000,335.000000) scale(0.100000,-0.100000)"
fill="#000000" stroke="none">
<path d="M364 3230 c-143 -15 -255 -38 -275 -56 -43 -39 -54 -112 -54 -369 0
-297 7 -326 89 -379 29 -18 63 -37 77 -41 13 -4 42 -17 64 -30 80 -45 235 -65
519 -65 l189 0 -6 -127 c-7 -143 -31 -253 -77 -350 l-29 -63 -69 0 c-88 0
-158 -13 -219 -42 -55 -25 -160 -126 -189 -183 -11 -21 -27 -42 -35 -45 -174
-80 -268 -173 -328 -326 -18 -48 -20 -76 -20 -395 -1 -376 4 -440 44 -526 23
-51 117 -163 137 -163 4 0 -2 19 -12 42 -11 24 -20 61 -20 83 0 21 -10 79 -22
129 -22 89 -22 90 -5 255 25 248 83 448 138 477 16 8 29 18 29 22 0 4 22 31
48 60 l48 52 2 -82 c1 -46 5 -111 8 -146 l6 -62 428 0 c381 0 429 2 434 16 3
9 6 66 6 127 l0 112 46 -50 c25 -27 56 -73 69 -101 76 -157 46 -576 -64 -894
l-38 -111 56 3 56 3 32 99 c31 93 72 269 90 381 l8 50 3 -70 c5 -101 -15 -279
-43 -379 l-24 -86 54 0 54 0 16 53 c23 80 32 140 46 293 11 121 10 160 -4 285
-8 79 -28 184 -42 234 -31 104 -128 311 -190 406 -41 60 -128 153 -166 175 -9
5 -31 35 -49 67 -38 68 -115 147 -178 184 -30 18 -42 31 -38 42 2 9 20 54 39
101 21 51 43 135 56 210 37 210 43 230 60 230 13 0 13 2 2 9 -9 6 11 14 61 25
87 19 115 36 134 83 22 52 35 223 24 301 -6 37 -17 123 -25 192 -17 156 -49
266 -83 288 -49 32 -231 52 -517 56 -148 3 -307 1 -351 -4z m324 -32 c7 -7 12
-22 12 -35 0 -27 -42 -42 -65 -23 -28 23 -11 70 25 70 9 0 21 -5 28 -12z m391
-113 l31 -7 -2 -266 -3 -267 -445 0 -445 0 -3 260 c-2 211 0 262 11 270 16 12
807 21 856 10z m-399 -600 c0 -8 -7 -15 -15 -15 -8 0 -15 7 -15 15 0 8 7 15
15 15 8 0 15 -7 15 -15z m-5 -35 c3 -5 -1 -10 -10 -10 -9 0 -13 5 -10 10 3 6
8 10 10 10 2 0 7 -4 10 -10z m125 -779 c0 -14 -112 -111 -127 -111 -32 0 -6
77 35 103 29 18 92 23 92 8z m90 -105 c0 -31 -3 -34 -36 -41 -20 -3 -39 -4
-42 0 -6 6 57 75 70 75 4 0 8 -15 8 -34z m-626 -283 c-76 -93 -114 -158 -183
-313 -25 -56 1 56 30 128 40 102 92 173 169 231 40 31 35 17 -16 -46z"/>
<path d="M3133 1589 c-47 -23 -94 -76 -121 -136 -14 -31 -17 -67 -17 -198 1
-144 3 -166 24 -220 31 -79 80 -126 158 -149 l60 -18 7 -91 c3 -49 6 -168 6
-262 0 -161 1 -174 22 -200 14 -18 26 -56 35 -114 9 -57 19 -90 30 -99 18 -13
17 -14 -12 -84 -6 -14 -2 -18 18 -18 64 0 89 12 106 51 12 29 22 39 38 39 15
0 24 8 28 23 43 178 42 150 37 827 -1 212 -2 398 -2 414 -1 69 -87 184 -171
226 -75 39 -179 42 -246 9z m247 -59 c20 -5 45 -16 55 -25 18 -13 12 -14 -65
-15 -47 0 -109 -3 -137 -6 -43 -6 -53 -4 -53 8 0 50 94 68 200 38z m-222 -301
c-3 -8 -7 -3 -11 10 -4 17 -3 21 5 13 5 -5 8 -16 6 -23z m39 -1 c-3 -8 -6 -5
-6 6 -1 11 2 17 5 13 3 -3 4 -12 1 -19z m-40 -50 c-3 -8 -6 -5 -6 6 -1 11 2
17 5 13 3 -3 4 -12 1 -19z m74 -91 c-10 -9 -11 -8 -5 6 3 10 9 15 12 12 3 -3
0 -11 -7 -18z m164 -69 c1 -2 6 -132 10 -290 l7 -288 -29 0 c-32 0 -83 36 -68
47 6 5 11 31 12 58 1 28 2 64 3 80 0 17 -3 84 -8 150 -8 104 -7 124 7 148 10
18 12 30 6 35 -6 4 -11 22 -11 40 0 33 1 34 34 28 19 -3 36 -6 37 -8z m-147
-89 c-3 -8 -7 -3 -11 10 -4 17 -3 21 5 13 5 -5 8 -16 6 -23z"/>
</g>
</svg>
